<mxfile host="65bd71144e">
    <diagram id="yuDbGYAGpUIpT8dz--dv" name="페이지-1">
        <mxGraphModel dx="5403" dy="3062" grid="1" gridSize="10" guides="1" tooltips="1" connect="1" arrows="1" fold="1" page="1" pageScale="1" pageWidth="1169" pageHeight="827" math="0" shadow="0">
            <root>
                <mxCell id="0"/>
                <mxCell id="1" parent="0"/>
                <mxCell id="2" value="FSMState" style="swimlane;fontStyle=0;align=center;verticalAlign=middle;childLayout=stackLayout;horizontal=1;startSize=60;horizontalStack=0;resizeParent=1;resizeLast=0;collapsible=1;marginBottom=0;rounded=0;shadow=0;strokeWidth=1;spacingTop=0;spacingBottom=0;spacingRight=0;fillColor=#18141D;swimlaneFillColor=#18141D;fillStyle=solid;fontColor=#F0F0F0;strokeColor=#F0F0F0;fontSize=30;" vertex="1" parent="1">
                    <mxGeometry x="-2110" y="-520" width="520" height="540" as="geometry">
                        <mxRectangle x="-791.5" y="-581" width="160" height="26" as="alternateBounds"/>
                    </mxGeometry>
                </mxCell>
                <mxCell id="67" value=" - autoTransitioning : bool" style="text;align=left;verticalAlign=middle;spacingLeft=4;spacingRight=4;overflow=hidden;rotatable=0;points=[[0,0.5],[1,0.5]];portConstraint=eastwest;rounded=0;shadow=0;html=0;fontColor=#F0F0F0;fontSize=26;" vertex="1" parent="2">
                    <mxGeometry y="60" width="520" height="50" as="geometry"/>
                </mxCell>
                <mxCell id="68" value=" " style="text;align=left;verticalAlign=middle;spacingLeft=4;spacingRight=4;overflow=hidden;rotatable=0;points=[[0,0.5],[1,0.5]];portConstraint=eastwest;rounded=0;shadow=0;html=0;fontSize=26;" vertex="1" parent="2">
                    <mxGeometry y="110" width="520" height="20" as="geometry"/>
                </mxCell>
                <mxCell id="3" value=" - brain : FSMBrain" style="text;align=left;verticalAlign=middle;spacingLeft=4;spacingRight=4;overflow=hidden;rotatable=0;points=[[0,0.5],[1,0.5]];portConstraint=eastwest;rounded=0;shadow=0;html=0;fontColor=#F0F0F0;fontSize=26;" vertex="1" parent="2">
                    <mxGeometry y="130" width="520" height="50" as="geometry"/>
                </mxCell>
                <mxCell id="5" value=" " style="text;align=left;verticalAlign=middle;spacingLeft=4;spacingRight=4;overflow=hidden;rotatable=0;points=[[0,0.5],[1,0.5]];portConstraint=eastwest;rounded=0;shadow=0;html=0;fontSize=26;" vertex="1" parent="2">
                    <mxGeometry y="180" width="520" height="20" as="geometry"/>
                </mxCell>
                <mxCell id="6" value=" - actions : List&lt;FSMAction&gt;" style="text;align=left;verticalAlign=middle;spacingLeft=4;spacingRight=4;overflow=hidden;rotatable=0;points=[[0,0.5],[1,0.5]];portConstraint=eastwest;rounded=0;shadow=0;html=0;fontColor=#F0F0F0;fontSize=26;" vertex="1" parent="2">
                    <mxGeometry y="200" width="520" height="50" as="geometry"/>
                </mxCell>
                <mxCell id="66" value=" - transitions : List&lt;FSMTransition&gt;" style="text;align=left;verticalAlign=middle;spacingLeft=4;spacingRight=4;overflow=hidden;rotatable=0;points=[[0,0.5],[1,0.5]];portConstraint=eastwest;rounded=0;shadow=0;html=0;fontColor=#F0F0F0;fontSize=26;" vertex="1" parent="2">
                    <mxGeometry y="250" width="520" height="50" as="geometry"/>
                </mxCell>
                <mxCell id="13" value="" style="line;html=1;strokeWidth=1;align=left;verticalAlign=middle;spacingTop=-1;spacingLeft=3;spacingRight=3;rotatable=0;labelPosition=right;points=[];portConstraint=eastwest;strokeColor=#F0F0F0;fontSize=26;" vertex="1" parent="2">
                    <mxGeometry y="300" width="520" height="8" as="geometry"/>
                </mxCell>
                <mxCell id="18" value=" + Init(FSMBrain) : void" style="text;align=left;verticalAlign=middle;spacingLeft=4;spacingRight=4;overflow=hidden;rotatable=0;points=[[0,0.5],[1,0.5]];portConstraint=eastwest;rounded=0;shadow=0;html=0;fontColor=#F0F0F0;fontSize=26;" vertex="1" parent="2">
                    <mxGeometry y="308" width="520" height="50" as="geometry"/>
                </mxCell>
                <mxCell id="19" value=" " style="text;align=left;verticalAlign=middle;spacingLeft=4;spacingRight=4;overflow=hidden;rotatable=0;points=[[0,0.5],[1,0.5]];portConstraint=eastwest;rounded=0;shadow=0;html=0;fontSize=26;" vertex="1" parent="2">
                    <mxGeometry y="358" width="520" height="20" as="geometry"/>
                </mxCell>
                <mxCell id="14" value=" + EnterState() : void" style="text;align=left;verticalAlign=middle;spacingLeft=4;spacingRight=4;overflow=hidden;rotatable=0;points=[[0,0.5],[1,0.5]];portConstraint=eastwest;rounded=0;shadow=0;html=0;fontColor=#F0F0F0;fontSize=26;" vertex="1" parent="2">
                    <mxGeometry y="378" width="520" height="50" as="geometry"/>
                </mxCell>
                <mxCell id="15" value=" + UpdateState() : void" style="text;align=left;verticalAlign=middle;spacingLeft=4;spacingRight=4;overflow=hidden;rotatable=0;points=[[0,0.5],[1,0.5]];portConstraint=eastwest;rounded=0;shadow=0;html=0;fontColor=#F0F0F0;fontSize=26;" vertex="1" parent="2">
                    <mxGeometry y="428" width="520" height="50" as="geometry"/>
                </mxCell>
                <mxCell id="17" value=" + ExitState() : void" style="text;align=left;verticalAlign=middle;spacingLeft=4;spacingRight=4;overflow=hidden;rotatable=0;points=[[0,0.5],[1,0.5]];portConstraint=eastwest;rounded=0;shadow=0;html=0;fontColor=#F0F0F0;fontSize=26;" vertex="1" parent="2">
                    <mxGeometry y="478" width="520" height="50" as="geometry"/>
                </mxCell>
                <mxCell id="22" value="FSMBrain" style="swimlane;fontStyle=0;align=center;verticalAlign=middle;childLayout=stackLayout;horizontal=1;startSize=60;horizontalStack=0;resizeParent=1;resizeLast=0;collapsible=1;marginBottom=0;rounded=0;shadow=0;strokeWidth=1;spacingTop=0;spacingBottom=0;spacingRight=0;fillColor=#18141D;swimlaneFillColor=#18141D;fillStyle=solid;fontColor=#F0F0F0;strokeColor=#F0F0F0;fontSize=30;" vertex="1" parent="1">
                    <mxGeometry x="-2110" y="-910" width="790" height="370" as="geometry">
                        <mxRectangle x="-791.5" y="-581" width="160" height="26" as="alternateBounds"/>
                    </mxGeometry>
                </mxCell>
                <mxCell id="26" value=" + OnStateChangedEvent : UnityEvent&lt;FSMState, FSMState&gt;" style="text;align=left;verticalAlign=middle;spacingLeft=4;spacingRight=4;overflow=hidden;rotatable=0;points=[[0,0.5],[1,0.5]];portConstraint=eastwest;rounded=0;shadow=0;html=0;fontColor=#F0F0F0;fontSize=26;" vertex="1" parent="22">
                    <mxGeometry y="60" width="790" height="50" as="geometry"/>
                </mxCell>
                <mxCell id="25" value=" " style="text;align=left;verticalAlign=middle;spacingLeft=4;spacingRight=4;overflow=hidden;rotatable=0;points=[[0,0.5],[1,0.5]];portConstraint=eastwest;rounded=0;shadow=0;html=0;fontSize=26;" vertex="1" parent="22">
                    <mxGeometry y="110" width="790" height="20" as="geometry"/>
                </mxCell>
                <mxCell id="23" value=" - currentState : FSMState" style="text;align=left;verticalAlign=middle;spacingLeft=4;spacingRight=4;overflow=hidden;rotatable=0;points=[[0,0.5],[1,0.5]];portConstraint=eastwest;rounded=0;shadow=0;html=0;fontColor=#F0F0F0;fontSize=26;" vertex="1" parent="22">
                    <mxGeometry y="130" width="790" height="50" as="geometry"/>
                </mxCell>
                <mxCell id="33" value="" style="line;html=1;strokeWidth=1;align=left;verticalAlign=middle;spacingTop=-1;spacingLeft=3;spacingRight=3;rotatable=0;labelPosition=right;points=[];portConstraint=eastwest;strokeColor=#F0F0F0;fontSize=26;" vertex="1" parent="22">
                    <mxGeometry y="180" width="790" height="8" as="geometry"/>
                </mxCell>
                <mxCell id="38" value=" - Awake() : void" style="text;align=left;verticalAlign=middle;spacingLeft=4;spacingRight=4;overflow=hidden;rotatable=0;points=[[0,0.5],[1,0.5]];portConstraint=eastwest;rounded=0;shadow=0;html=0;fontColor=#F0F0F0;fontSize=26;" vertex="1" parent="22">
                    <mxGeometry y="188" width="790" height="50" as="geometry"/>
                </mxCell>
                <mxCell id="37" value=" - Update() : void" style="text;align=left;verticalAlign=middle;spacingLeft=4;spacingRight=4;overflow=hidden;rotatable=0;points=[[0,0.5],[1,0.5]];portConstraint=eastwest;rounded=0;shadow=0;html=0;fontColor=#F0F0F0;fontSize=26;" vertex="1" parent="22">
                    <mxGeometry y="238" width="790" height="50" as="geometry"/>
                </mxCell>
                <mxCell id="39" value=" " style="text;align=left;verticalAlign=middle;spacingLeft=4;spacingRight=4;overflow=hidden;rotatable=0;points=[[0,0.5],[1,0.5]];portConstraint=eastwest;rounded=0;shadow=0;html=0;fontSize=26;" vertex="1" parent="22">
                    <mxGeometry y="288" width="790" height="20" as="geometry"/>
                </mxCell>
                <mxCell id="34" value=" + ChangeState(FSMState) : void" style="text;align=left;verticalAlign=middle;spacingLeft=4;spacingRight=4;overflow=hidden;rotatable=0;points=[[0,0.5],[1,0.5]];portConstraint=eastwest;rounded=0;shadow=0;html=0;fontColor=#F0F0F0;fontSize=26;" vertex="1" parent="22">
                    <mxGeometry y="308" width="790" height="50" as="geometry"/>
                </mxCell>
                <mxCell id="42" value="FSMAction : abstract" style="swimlane;fontStyle=0;align=center;verticalAlign=middle;childLayout=stackLayout;horizontal=1;startSize=60;horizontalStack=0;resizeParent=1;resizeLast=0;collapsible=1;marginBottom=0;rounded=0;shadow=0;strokeWidth=1;spacingTop=0;spacingBottom=0;spacingRight=0;fillColor=#18141D;swimlaneFillColor=#18141D;fillStyle=solid;fontColor=#F0F0F0;strokeColor=#F0F0F0;fontSize=30;" vertex="1" parent="1">
                    <mxGeometry x="-2110" y="50" width="520" height="400" as="geometry">
                        <mxRectangle x="-791.5" y="-581" width="160" height="26" as="alternateBounds"/>
                    </mxGeometry>
                </mxCell>
                <mxCell id="43" value=" # brain : FSMBrain" style="text;align=left;verticalAlign=middle;spacingLeft=4;spacingRight=4;overflow=hidden;rotatable=0;points=[[0,0.5],[1,0.5]];portConstraint=eastwest;rounded=0;shadow=0;html=0;fontColor=#F0F0F0;fontSize=26;" vertex="1" parent="42">
                    <mxGeometry y="60" width="520" height="50" as="geometry"/>
                </mxCell>
                <mxCell id="44" value=" # state : FSMState" style="text;align=left;verticalAlign=middle;spacingLeft=4;spacingRight=4;overflow=hidden;rotatable=0;points=[[0,0.5],[1,0.5]];portConstraint=eastwest;rounded=0;shadow=0;html=0;fontColor=#F0F0F0;fontSize=26;" vertex="1" parent="42">
                    <mxGeometry y="110" width="520" height="50" as="geometry"/>
                </mxCell>
                <mxCell id="53" value="" style="line;html=1;strokeWidth=1;align=left;verticalAlign=middle;spacingTop=-1;spacingLeft=3;spacingRight=3;rotatable=0;labelPosition=right;points=[];portConstraint=eastwest;strokeColor=#F0F0F0;fontSize=26;" vertex="1" parent="42">
                    <mxGeometry y="160" width="520" height="8" as="geometry"/>
                </mxCell>
                <mxCell id="61" value=" + Init(FSMBrain, FSMState) : virtual void" style="text;align=left;verticalAlign=middle;spacingLeft=4;spacingRight=4;overflow=hidden;rotatable=0;points=[[0,0.5],[1,0.5]];portConstraint=eastwest;rounded=0;shadow=0;html=0;fontColor=#F0F0F0;fontSize=26;" vertex="1" parent="42">
                    <mxGeometry y="168" width="520" height="50" as="geometry"/>
                </mxCell>
                <mxCell id="59" value=" " style="text;align=left;verticalAlign=middle;spacingLeft=4;spacingRight=4;overflow=hidden;rotatable=0;points=[[0,0.5],[1,0.5]];portConstraint=eastwest;rounded=0;shadow=0;html=0;fontSize=26;" vertex="1" parent="42">
                    <mxGeometry y="218" width="520" height="20" as="geometry"/>
                </mxCell>
                <mxCell id="54" value=" + EnterState() : virtual void" style="text;align=left;verticalAlign=middle;spacingLeft=4;spacingRight=4;overflow=hidden;rotatable=0;points=[[0,0.5],[1,0.5]];portConstraint=eastwest;rounded=0;shadow=0;html=0;fontColor=#F0F0F0;fontSize=26;" vertex="1" parent="42">
                    <mxGeometry y="238" width="520" height="50" as="geometry"/>
                </mxCell>
                <mxCell id="55" value=" + UpdateState() : virtual void" style="text;align=left;verticalAlign=middle;spacingLeft=4;spacingRight=4;overflow=hidden;rotatable=0;points=[[0,0.5],[1,0.5]];portConstraint=eastwest;rounded=0;shadow=0;html=0;fontColor=#F0F0F0;fontSize=26;" vertex="1" parent="42">
                    <mxGeometry y="288" width="520" height="50" as="geometry"/>
                </mxCell>
                <mxCell id="57" value=" + ExitState() : virtual void" style="text;align=left;verticalAlign=middle;spacingLeft=4;spacingRight=4;overflow=hidden;rotatable=0;points=[[0,0.5],[1,0.5]];portConstraint=eastwest;rounded=0;shadow=0;html=0;fontColor=#F0F0F0;fontSize=26;" vertex="1" parent="42">
                    <mxGeometry y="338" width="520" height="50" as="geometry"/>
                </mxCell>
                <mxCell id="69" value="FSMTransition" style="swimlane;fontStyle=0;align=center;verticalAlign=middle;childLayout=stackLayout;horizontal=1;startSize=60;horizontalStack=0;resizeParent=1;resizeLast=0;collapsible=1;marginBottom=0;rounded=0;shadow=0;strokeWidth=1;spacingTop=0;spacingBottom=0;spacingRight=0;fillColor=#18141D;swimlaneFillColor=#18141D;fillStyle=solid;fontColor=#F0F0F0;strokeColor=#F0F0F0;fontSize=30;" vertex="1" parent="1">
                    <mxGeometry x="-1550" y="-520" width="520" height="470" as="geometry">
                        <mxRectangle x="-791.5" y="-581" width="160" height="26" as="alternateBounds"/>
                    </mxGeometry>
                </mxCell>
                <mxCell id="97" value=" - targetState : FSMState" style="text;align=left;verticalAlign=middle;spacingLeft=4;spacingRight=4;overflow=hidden;rotatable=0;points=[[0,0.5],[1,0.5]];portConstraint=eastwest;rounded=0;shadow=0;html=0;fontColor=#F0F0F0;fontSize=26;" vertex="1" parent="69">
                    <mxGeometry y="60" width="520" height="50" as="geometry"/>
                </mxCell>
                <mxCell id="103" value=" &lt;get&gt; TargetState : FSMState" style="text;align=left;verticalAlign=middle;spacingLeft=4;spacingRight=4;overflow=hidden;rotatable=0;points=[[0,0.5],[1,0.5]];portConstraint=eastwest;rounded=0;shadow=0;html=0;fontColor=#F0F0F0;fontSize=26;" vertex="1" parent="69">
                    <mxGeometry y="110" width="520" height="50" as="geometry"/>
                </mxCell>
                <mxCell id="73" value=" " style="text;align=left;verticalAlign=middle;spacingLeft=4;spacingRight=4;overflow=hidden;rotatable=0;points=[[0,0.5],[1,0.5]];portConstraint=eastwest;rounded=0;shadow=0;html=0;fontSize=26;" vertex="1" parent="69">
                    <mxGeometry y="160" width="520" height="20" as="geometry"/>
                </mxCell>
                <mxCell id="74" value=" - decisions : List&lt;FSMDecision&gt;" style="text;align=left;verticalAlign=middle;spacingLeft=4;spacingRight=4;overflow=hidden;rotatable=0;points=[[0,0.5],[1,0.5]];portConstraint=eastwest;rounded=0;shadow=0;html=0;fontColor=#F0F0F0;fontSize=26;" vertex="1" parent="69">
                    <mxGeometry y="180" width="520" height="50" as="geometry"/>
                </mxCell>
                <mxCell id="76" value="" style="line;html=1;strokeWidth=1;align=left;verticalAlign=middle;spacingTop=-1;spacingLeft=3;spacingRight=3;rotatable=0;labelPosition=right;points=[];portConstraint=eastwest;strokeColor=#F0F0F0;fontSize=26;" vertex="1" parent="69">
                    <mxGeometry y="230" width="520" height="8" as="geometry"/>
                </mxCell>
                <mxCell id="77" value=" + Init(FSMBrain, FSMState) : void" style="text;align=left;verticalAlign=middle;spacingLeft=4;spacingRight=4;overflow=hidden;rotatable=0;points=[[0,0.5],[1,0.5]];portConstraint=eastwest;rounded=0;shadow=0;html=0;fontColor=#F0F0F0;fontSize=26;" vertex="1" parent="69">
                    <mxGeometry y="238" width="520" height="50" as="geometry"/>
                </mxCell>
                <mxCell id="78" value=" " style="text;align=left;verticalAlign=middle;spacingLeft=4;spacingRight=4;overflow=hidden;rotatable=0;points=[[0,0.5],[1,0.5]];portConstraint=eastwest;rounded=0;shadow=0;html=0;fontSize=26;" vertex="1" parent="69">
                    <mxGeometry y="288" width="520" height="20" as="geometry"/>
                </mxCell>
                <mxCell id="101" value=" + EnterState() : virtual void" style="text;align=left;verticalAlign=middle;spacingLeft=4;spacingRight=4;overflow=hidden;rotatable=0;points=[[0,0.5],[1,0.5]];portConstraint=eastwest;rounded=0;shadow=0;html=0;fontColor=#F0F0F0;fontSize=26;" vertex="1" parent="69">
                    <mxGeometry y="308" width="520" height="50" as="geometry"/>
                </mxCell>
                <mxCell id="102" value=" + ExitState() : virtual void" style="text;align=left;verticalAlign=middle;spacingLeft=4;spacingRight=4;overflow=hidden;rotatable=0;points=[[0,0.5],[1,0.5]];portConstraint=eastwest;rounded=0;shadow=0;html=0;fontColor=#F0F0F0;fontSize=26;" vertex="1" parent="69">
                    <mxGeometry y="358" width="520" height="50" as="geometry"/>
                </mxCell>
                <mxCell id="79" value=" + CheckDecisions() : bool" style="text;align=left;verticalAlign=middle;spacingLeft=4;spacingRight=4;overflow=hidden;rotatable=0;points=[[0,0.5],[1,0.5]];portConstraint=eastwest;rounded=0;shadow=0;html=0;fontColor=#F0F0F0;fontSize=26;" vertex="1" parent="69">
                    <mxGeometry y="408" width="520" height="50" as="geometry"/>
                </mxCell>
                <mxCell id="82" value="FSMDecision : abstract" style="swimlane;fontStyle=0;align=center;verticalAlign=middle;childLayout=stackLayout;horizontal=1;startSize=60;horizontalStack=0;resizeParent=1;resizeLast=0;collapsible=1;marginBottom=0;rounded=0;shadow=0;strokeWidth=1;spacingTop=0;spacingBottom=0;spacingRight=0;fillColor=#18141D;swimlaneFillColor=#18141D;fillStyle=solid;fontColor=#F0F0F0;strokeColor=#F0F0F0;fontSize=30;" vertex="1" parent="1">
                    <mxGeometry x="-1550" y="-20" width="520" height="520" as="geometry">
                        <mxRectangle x="-791.5" y="-581" width="160" height="26" as="alternateBounds"/>
                    </mxGeometry>
                </mxCell>
                <mxCell id="104" value=" # isReverse : bool" style="text;align=left;verticalAlign=middle;spacingLeft=4;spacingRight=4;overflow=hidden;rotatable=0;points=[[0,0.5],[1,0.5]];portConstraint=eastwest;rounded=0;shadow=0;html=0;fontColor=#F0F0F0;fontSize=26;" vertex="1" parent="82">
                    <mxGeometry y="60" width="520" height="50" as="geometry"/>
                </mxCell>
                <mxCell id="95" value=" &lt;get&gt; IsReverse : bool" style="text;align=left;verticalAlign=middle;spacingLeft=4;spacingRight=4;overflow=hidden;rotatable=0;points=[[0,0.5],[1,0.5]];portConstraint=eastwest;rounded=0;shadow=0;html=0;fontColor=#F0F0F0;fontSize=26;" vertex="1" parent="82">
                    <mxGeometry y="110" width="520" height="50" as="geometry"/>
                </mxCell>
                <mxCell id="96" value=" " style="text;align=left;verticalAlign=middle;spacingLeft=4;spacingRight=4;overflow=hidden;rotatable=0;points=[[0,0.5],[1,0.5]];portConstraint=eastwest;rounded=0;shadow=0;html=0;fontSize=26;" vertex="1" parent="82">
                    <mxGeometry y="160" width="520" height="20" as="geometry"/>
                </mxCell>
                <mxCell id="83" value=" # brain : FSMBrain" style="text;align=left;verticalAlign=middle;spacingLeft=4;spacingRight=4;overflow=hidden;rotatable=0;points=[[0,0.5],[1,0.5]];portConstraint=eastwest;rounded=0;shadow=0;html=0;fontColor=#F0F0F0;fontSize=26;" vertex="1" parent="82">
                    <mxGeometry y="180" width="520" height="50" as="geometry"/>
                </mxCell>
                <mxCell id="85" value=" # state : FSMState" style="text;align=left;verticalAlign=middle;spacingLeft=4;spacingRight=4;overflow=hidden;rotatable=0;points=[[0,0.5],[1,0.5]];portConstraint=eastwest;rounded=0;shadow=0;html=0;fontColor=#F0F0F0;fontSize=26;" vertex="1" parent="82">
                    <mxGeometry y="230" width="520" height="50" as="geometry"/>
                </mxCell>
                <mxCell id="87" value="" style="line;html=1;strokeWidth=1;align=left;verticalAlign=middle;spacingTop=-1;spacingLeft=3;spacingRight=3;rotatable=0;labelPosition=right;points=[];portConstraint=eastwest;strokeColor=#F0F0F0;fontSize=26;" vertex="1" parent="82">
                    <mxGeometry y="280" width="520" height="8" as="geometry"/>
                </mxCell>
                <mxCell id="88" value=" + Init(FSMBrain, FSMState) :  virtual void" style="text;align=left;verticalAlign=middle;spacingLeft=4;spacingRight=4;overflow=hidden;rotatable=0;points=[[0,0.5],[1,0.5]];portConstraint=eastwest;rounded=0;shadow=0;html=0;fontColor=#F0F0F0;fontSize=26;" vertex="1" parent="82">
                    <mxGeometry y="288" width="520" height="50" as="geometry"/>
                </mxCell>
                <mxCell id="89" value=" " style="text;align=left;verticalAlign=middle;spacingLeft=4;spacingRight=4;overflow=hidden;rotatable=0;points=[[0,0.5],[1,0.5]];portConstraint=eastwest;rounded=0;shadow=0;html=0;fontSize=26;" vertex="1" parent="82">
                    <mxGeometry y="338" width="520" height="20" as="geometry"/>
                </mxCell>
                <mxCell id="99" value=" + EnterState() : virtual void" style="text;align=left;verticalAlign=middle;spacingLeft=4;spacingRight=4;overflow=hidden;rotatable=0;points=[[0,0.5],[1,0.5]];portConstraint=eastwest;rounded=0;shadow=0;html=0;fontColor=#F0F0F0;fontSize=26;" vertex="1" parent="82">
                    <mxGeometry y="358" width="520" height="50" as="geometry"/>
                </mxCell>
                <mxCell id="100" value=" + ExitState() : virtual void" style="text;align=left;verticalAlign=middle;spacingLeft=4;spacingRight=4;overflow=hidden;rotatable=0;points=[[0,0.5],[1,0.5]];portConstraint=eastwest;rounded=0;shadow=0;html=0;fontColor=#F0F0F0;fontSize=26;" vertex="1" parent="82">
                    <mxGeometry y="408" width="520" height="50" as="geometry"/>
                </mxCell>
                <mxCell id="93" value=" + MakeDecision() : abstract bool" style="text;align=left;verticalAlign=middle;spacingLeft=4;spacingRight=4;overflow=hidden;rotatable=0;points=[[0,0.5],[1,0.5]];portConstraint=eastwest;rounded=0;shadow=0;html=0;fontColor=#F0F0F0;fontSize=26;" vertex="1" parent="82">
                    <mxGeometry y="458" width="520" height="50" as="geometry"/>
                </mxCell>
            </root>
        </mxGraphModel>
    </diagram>
</mxfile>